# xmcd
#
# Track frame offsets: 
#        150
#        2134
#        20783
#        39775
#        61157
#        77093
#        95398
#        113849
#        130694
#        154994
#        172244
#        202034
#
# Disc length: 3925 seconds
#
# Revision: 2
# Processed by: cddbd v1.5.2PL0 Copyright (c) Steve Scherf et al.
# Submitted via: ExactAudioCopy v1.5
#
DISCID=980f530c
DTITLE=Sergej Cetkovic - Kad Ti Zatreba
DYEAR=2005
DGENRE=
TTITLE0=Kad Ti Zatreba (Intro)
TTITLE1=Pogledi U Tami
TTITLE2=Necu Da Znam
TTITLE3=Prokleta Bila
TTITLE4=Musko Sam
TTITLE5=Reci Mi U Lice
TTITLE6=Nazovi Me
TTITLE7=1000 Razloga
TTITLE8=Prsten Na Sto
TTITLE9=Nemam Gdje
TTITLE10=Kad Ti Zatreba
TTITLE11=Traka Podataka
EXTD=
EXTT0=
EXTT1=
EXTT2=
EXTT3=
EXTT4=
EXTT5=
EXTT6=
EXTT7=
EXTT8=
EXTT9=
EXTT10=
EXTT11=
PLAYORDER=
